<svg width="56" height="56" viewBox="0 0 56 56" fill="none" xmlns="http://www.w3.org/2000/svg">
<path d="M22.208 23.4935C20.3823 23.4935 18.944 24.8935 18.944 26.6029C18.944 28.3065 20.416 29.7124 22.208 29.7124C24.0303 29.7124 25.4686 28.3065 25.4686 26.6029C25.5057 24.8905 24.0303 23.4935 22.208 23.4935ZM33.8897 23.4935C32.064 23.4935 30.6257 24.8935 30.6257 26.6029C30.6257 28.3065 32.0977 29.7124 33.8897 29.7124C35.712 29.7124 37.1503 28.3065 37.1503 26.6029C37.1469 24.8905 35.712 23.4935 33.8897 23.4935Z" fill="#EDEDED"/>
<path d="M49.4417 0H6.55832C2.944 0 0 2.576 0 5.768V43.624C0 46.816 2.944 49.392 6.55832 49.392H42.8463L41.1453 44.2076L45.2446 47.541L49.1149 50.6771L56 56V5.768C56 2.576 53.056 0 49.4417 0ZM37.0863 36.568C37.0863 36.568 35.9343 35.3655 34.9777 34.2956C39.168 33.2581 40.768 30.9651 40.768 30.9651C39.4543 31.7196 38.208 32.256 37.0863 32.6215C35.4863 33.2051 33.9537 33.5971 32.448 33.824C29.376 34.3251 26.56 34.1865 24.1583 33.7945C22.336 33.4851 20.7697 33.0371 19.456 32.5861C18.7217 32.3356 17.9166 32.032 17.1217 31.64C17.024 31.5781 16.9297 31.5545 16.8354 31.4985C16.768 31.4691 16.7377 31.4425 16.704 31.4101C16.128 31.1331 15.808 30.9385 15.808 30.9385C15.808 30.9385 17.344 33.1785 21.4097 34.2425C20.4497 35.3036 19.264 36.568 19.264 36.568C12.1937 36.3705 9.50905 32.312 9.50905 32.312C9.50905 23.296 14.1171 15.9895 14.1171 15.9895C18.7251 12.9625 23.1074 13.048 23.1074 13.048L23.4274 13.384C17.6674 14.8429 15.0097 17.0535 15.0097 17.0535C15.0097 17.0535 15.7171 16.7175 16.8994 16.2429C20.3217 14.9284 23.04 14.5629 24.1617 14.4775C24.3537 14.4509 24.5154 14.4215 24.7074 14.4215C26.6611 14.1975 28.8674 14.1415 31.168 14.3655C34.2097 14.6749 37.4771 15.4589 40.8017 17.0535C40.8017 17.0535 38.272 14.9549 32.832 13.4989L33.28 13.0509C33.28 13.0509 37.6657 12.9655 42.2703 15.9924C42.2703 15.9924 46.8783 23.2989 46.8783 32.3149C46.8783 32.3149 44.16 36.3705 37.0863 36.568Z" fill="#EDEDED"/>
</svg>
