<svg width="56" height="56" viewBox="0 0 56 56" fill="none" xmlns="http://www.w3.org/2000/svg">
<path d="M27.9782 13.5746C20.036 13.5746 13.602 20.0018 13.602 27.9286C13.602 35.8585 20.036 42.2857 27.9782 42.2857C35.9143 42.2857 42.3545 35.8585 42.3545 27.9286C42.3545 20.0018 35.9143 13.5746 27.9782 13.5746ZM27.9782 37.2557C22.8192 37.2557 18.6366 33.0796 18.6366 27.9317C18.6366 22.7807 22.8192 18.6077 27.9782 18.6077C33.1373 18.6077 37.3136 22.7807 37.3136 27.9317C37.3136 33.0796 33.1373 37.2557 27.9782 37.2557Z" fill="#EDEDED"/>
<path d="M42.9267 16.3939C44.7781 16.3939 46.279 14.8953 46.279 13.0468C46.279 11.1983 44.7781 9.69971 42.9267 9.69971C41.0753 9.69971 39.5744 11.1983 39.5744 13.0468C39.5744 14.8953 41.0753 16.3939 42.9267 16.3939Z" fill="#EDEDED"/>
<path d="M54.5167 9.64382C53.0582 5.89 50.0884 2.92171 46.3287 1.47172C44.155 0.655134 41.857 0.217343 39.5309 0.167664C36.5362 0.0372585 35.5877 0 27.9938 0C20.3998 0 19.4265 -3.123e-07 16.4567 0.167664C14.1368 0.214238 11.8387 0.652029 9.66504 1.47172C5.90227 2.92171 2.93247 5.89 1.47712 9.64382C0.659262 11.8173 0.220791 14.1087 0.174145 16.4311C0.0404265 19.4181 0 20.365 0 27.9503C0 35.5325 -2.31693e-08 36.4981 0.174145 39.4695C0.220791 41.792 0.659262 44.0834 1.47712 46.2599C2.93558 50.0106 5.90538 52.9789 9.66815 54.432C11.8325 55.2766 14.1306 55.7547 16.4629 55.8292C19.4576 55.9596 20.406 56 28 56C35.594 56 36.5673 56 39.5371 55.8292C41.8601 55.7827 44.1582 55.3418 46.335 54.5283C50.0946 53.0721 53.0644 50.1069 54.5229 46.3531C55.3407 44.1796 55.7792 41.8882 55.8259 39.5658C55.9596 36.5788 56 35.6318 56 28.0466C56 20.4613 56 19.4988 55.8259 16.5274C55.7854 14.1739 55.3501 11.8421 54.5167 9.64382ZM50.729 39.2397C50.7072 41.0282 50.3838 42.8011 49.7619 44.4808C48.8134 46.9244 46.8823 48.8556 44.438 49.7933C42.7743 50.4112 41.0204 50.7341 39.2448 50.7589C36.2905 50.8955 35.4571 50.9297 27.8818 50.9297C20.3003 50.9297 19.526 50.9297 16.5158 50.7589C14.7463 50.7372 12.9862 50.4112 11.3256 49.7933C8.87206 48.8587 6.92848 46.9275 5.98001 44.4808C5.3705 42.8228 5.04087 41.0685 5.01288 39.2987C4.87916 36.3491 4.84807 35.517 4.84807 27.9534C4.84807 20.3868 4.84807 19.6137 5.01288 16.605C5.03465 14.8166 5.35806 13.0468 5.98001 11.367C6.92848 8.91728 8.87206 6.98913 11.3256 6.05145C12.9862 5.43668 14.7463 5.11067 16.5158 5.08583C19.4731 4.95232 20.3034 4.91506 27.8818 4.91506C35.4602 4.91506 36.2377 4.91506 39.2448 5.08583C41.0204 5.10756 42.7743 5.43358 44.438 6.05145C46.8823 6.99224 48.8134 8.92349 49.7619 11.367C50.3714 13.0251 50.701 14.7793 50.729 16.5491C50.8627 19.5019 50.8969 20.3309 50.8969 27.8975C50.8969 35.4611 50.8969 36.2746 50.7632 39.2428H50.729V39.2397Z" fill="#EDEDED"/>
</svg>
